<?xml version="1.0" standalone="no"?>
<!DOCTYPE svg PUBLIC "-//W3C//DTD SVG 20010904//EN"
 "http://www.w3.org/TR/2001/REC-SVG-20010904/DTD/svg10.dtd">
<svg version="1.0" xmlns="http://www.w3.org/2000/svg"
 width="720.000000pt" height="720.000000pt" viewBox="0 0 720.000000 720.000000"
 preserveAspectRatio="xMidYMid meet">
<metadata>
Created by potrace 1.14, written by Peter Selinger 2001-2017
</metadata>
<g transform="translate(0.000000,720.000000) scale(0.100000,-0.100000)"
fill="#000000" stroke="none">
<path d="M5430 5129 c-264 -17 -493 -78 -723 -194 -394 -199 -679 -565 -777
-999 l-18 -81 -1 576 c-1 317 -4 591 -7 608 l-7 31 -504 -2 -504 -3 -367 -617
c-202 -340 -370 -618 -373 -618 -3 0 -176 279 -385 620 l-379 620 -507 0 -508
0 0 -1500 0 -1500 585 0 585 0 2 359 3 360 148 -240 149 -239 298 0 299 0 149
250 149 251 6 -113 c4 -62 7 -229 7 -370 l0 -258 580 0 580 0 0 608 1 607 28
-110 c74 -285 195 -500 396 -700 250 -251 545 -393 930 -450 129 -19 408 -22
539 -5 327 41 638 139 891 282 52 30 65 33 100 27 83 -16 85 -15 85 41 0 47 2
52 40 78 21 15 39 30 40 33 0 4 -18 29 -40 55 l-40 49 0 617 0 618 -268 2
-269 3 339 298 c186 164 338 302 338 307 0 13 -147 187 -214 252 -325 320
-826 482 -1376 447z m295 -179 c170 -13 282 -35 418 -80 225 -75 424 -197 570
-349 l68 -70 -128 -113 c-70 -62 -168 -149 -218 -193 -49 -44 -120 -106 -156
-137 l-66 -57 -39 40 c-95 99 -228 182 -354 221 -62 19 -98 23 -205 23 -211 0
-337 -47 -462 -171 -85 -83 -143 -192 -169 -314 -22 -103 -14 -329 14 -417 64
-200 225 -360 411 -408 139 -36 314 -29 464 17 l67 21 0 338 0 339 385 0 385
0 0 -559 0 -559 -62 -39 c-331 -207 -845 -328 -1242 -293 -282 24 -471 82
-681 205 -327 193 -545 497 -626 875 -33 150 -33 447 -1 597 154 715 804 1148
1627 1083z m-4418 -97 c80 -130 236 -383 373 -608 204 -335 369 -604 426 -694
46 -74 47 -74 61 -50 8 13 198 332 422 709 l408 685 366 3 367 2 0 -1330 0
-1330 -398 0 -399 0 -6 137 c-4 75 -7 347 -7 605 0 257 -3 468 -7 468 -5 -1
-136 -218 -293 -483 l-286 -482 -194 -2 -195 -2 -41 67 c-23 37 -89 144 -147
237 -58 94 -164 265 -235 380 -72 116 -137 219 -146 230 -14 18 -15 -36 -16
-567 l0 -588 -405 0 -405 0 0 1330 0 1330 364 0 364 0 29 -47z m4485 -821 c32
-11 84 -36 115 -56 62 -37 173 -132 173 -147 0 -5 -69 -9 -160 -9 l-160 0 0
-364 0 -364 -67 -8 c-212 -22 -369 38 -462 176 -69 104 -98 242 -81 387 25
214 128 346 310 395 88 24 251 19 332 -10z"/>
</g>
</svg>
